<mxfile host="app.diagrams.net" modified="2024-01-15T06:06:16.579Z" agent="Mozilla/5.0 (Windows NT 10.0; Win64; x64) AppleWebKit/537.36 (KHTML, like Gecko) Chrome/120.0.0.0 Safari/537.36" etag="AVn_N1C8CMc-KtNQjuZ1" version="22.1.18" type="github">
  <diagram name="Page-1" id="1G1Tjwy4QLYmI6g69AmU">
    <mxGraphModel dx="1290" dy="1622" grid="1" gridSize="10" guides="1" tooltips="1" connect="1" arrows="1" fold="1" page="1" pageScale="1" pageWidth="850" pageHeight="1100" math="0" shadow="0">
      <root>
        <mxCell id="0" />
        <mxCell id="1" parent="0" />
        <mxCell id="q3AeN2dEeI-Zk-V-_fye-10" style="edgeStyle=orthogonalEdgeStyle;rounded=0;orthogonalLoop=1;jettySize=auto;html=1;entryX=0;entryY=0.5;entryDx=0;entryDy=0;" parent="1" source="q3AeN2dEeI-Zk-V-_fye-1" target="q3AeN2dEeI-Zk-V-_fye-2" edge="1">
          <mxGeometry relative="1" as="geometry">
            <Array as="points">
              <mxPoint x="20" y="-170" />
              <mxPoint x="20" y="190" />
            </Array>
          </mxGeometry>
        </mxCell>
        <mxCell id="q3AeN2dEeI-Zk-V-_fye-12" style="edgeStyle=orthogonalEdgeStyle;rounded=0;orthogonalLoop=1;jettySize=auto;html=1;entryX=0;entryY=0.5;entryDx=0;entryDy=0;" parent="1" source="q3AeN2dEeI-Zk-V-_fye-1" target="q3AeN2dEeI-Zk-V-_fye-5" edge="1">
          <mxGeometry relative="1" as="geometry">
            <Array as="points">
              <mxPoint x="20" y="-170" />
              <mxPoint x="20" y="570" />
            </Array>
          </mxGeometry>
        </mxCell>
        <mxCell id="q3AeN2dEeI-Zk-V-_fye-1" value="&lt;font style=&quot;font-size: 21px;&quot;&gt;&lt;b&gt;ERP Main Dashboard&lt;/b&gt;&lt;/font&gt;" style="rounded=0;whiteSpace=wrap;html=1;" parent="1" vertex="1">
          <mxGeometry x="365" y="-200" width="235" height="60" as="geometry" />
        </mxCell>
        <mxCell id="Tk3rU23ebC6zBRoKbNvr-3" value="" style="edgeStyle=orthogonalEdgeStyle;rounded=0;orthogonalLoop=1;jettySize=auto;html=1;entryX=0;entryY=0.5;entryDx=0;entryDy=0;" parent="1" source="q3AeN2dEeI-Zk-V-_fye-2" target="Tk3rU23ebC6zBRoKbNvr-2" edge="1">
          <mxGeometry relative="1" as="geometry" />
        </mxCell>
        <mxCell id="Tk3rU23ebC6zBRoKbNvr-5" style="edgeStyle=orthogonalEdgeStyle;rounded=0;orthogonalLoop=1;jettySize=auto;html=1;entryX=0;entryY=0.5;entryDx=0;entryDy=0;" parent="1" source="q3AeN2dEeI-Zk-V-_fye-2" target="Tk3rU23ebC6zBRoKbNvr-4" edge="1">
          <mxGeometry relative="1" as="geometry" />
        </mxCell>
        <mxCell id="q3AeN2dEeI-Zk-V-_fye-2" value="Finance Management" style="rounded=1;whiteSpace=wrap;html=1;" parent="1" vertex="1">
          <mxGeometry x="70" y="160" width="210" height="60" as="geometry" />
        </mxCell>
        <mxCell id="Tk3rU23ebC6zBRoKbNvr-7" value="" style="edgeStyle=orthogonalEdgeStyle;rounded=0;orthogonalLoop=1;jettySize=auto;html=1;" parent="1" source="q3AeN2dEeI-Zk-V-_fye-5" target="Tk3rU23ebC6zBRoKbNvr-6" edge="1">
          <mxGeometry relative="1" as="geometry" />
        </mxCell>
        <mxCell id="q3AeN2dEeI-Zk-V-_fye-5" value="Human Resource Management" style="rounded=1;whiteSpace=wrap;html=1;" parent="1" vertex="1">
          <mxGeometry x="70" y="540" width="210" height="60" as="geometry" />
        </mxCell>
        <mxCell id="Tk3rU23ebC6zBRoKbNvr-2" value="&lt;div&gt;&lt;ol&gt;&lt;li&gt;General ledger integration&lt;/li&gt;&lt;li&gt;Cash flow management&lt;/li&gt;&lt;li&gt;Profitability tracking&lt;/li&gt;&lt;li&gt;Banking operations&lt;/li&gt;&lt;li&gt;Payments and receivables&lt;/li&gt;&lt;li&gt;Bank reconciliation&lt;/li&gt;&lt;li&gt;Budgeting capabilities&lt;/li&gt;&lt;li&gt;Incentive Scheme/Method Calculation&lt;/li&gt;&lt;li&gt;Sales outlets and online sales management&lt;/li&gt;&lt;li&gt;User access and permissions&lt;/li&gt;&lt;/ol&gt;&lt;/div&gt;" style="whiteSpace=wrap;html=1;rounded=1;align=left;" parent="1" vertex="1">
          <mxGeometry x="380" y="-30" width="340" height="170" as="geometry" />
        </mxCell>
        <mxCell id="Tk3rU23ebC6zBRoKbNvr-4" value="&lt;ol&gt;&lt;li&gt;&lt;span style=&quot;background-color: initial;&quot;&gt;Asset inventory management&lt;/span&gt;&lt;/li&gt;&lt;li&gt;&lt;span style=&quot;background-color: initial;&quot;&gt;Maintenance and repairs&lt;/span&gt;&lt;/li&gt;&lt;li&gt;&lt;span style=&quot;background-color: initial;&quot;&gt;Depreciation and valuation&lt;/span&gt;&lt;/li&gt;&lt;li&gt;&lt;span style=&quot;background-color: initial;&quot;&gt;Asset procurement and budgeting&lt;/span&gt;&lt;/li&gt;&lt;li&gt;&lt;span style=&quot;background-color: initial;&quot;&gt;Vendor and warranty management&lt;/span&gt;&lt;/li&gt;&lt;li&gt;&lt;span style=&quot;background-color: initial;&quot;&gt;Integration with other ERP modules&lt;/span&gt;&lt;/li&gt;&lt;li&gt;&lt;span style=&quot;background-color: initial;&quot;&gt;User access and security&lt;/span&gt;&lt;/li&gt;&lt;li&gt;&lt;span style=&quot;background-color: initial;&quot;&gt;Reporting and analytics&lt;/span&gt;&lt;/li&gt;&lt;/ol&gt;&lt;ol&gt;&lt;/ol&gt;&lt;ol&gt;&lt;/ol&gt;&lt;ol&gt;&lt;/ol&gt;&lt;ol&gt;&lt;/ol&gt;&lt;ol&gt;&lt;/ol&gt;&lt;ol&gt;&lt;/ol&gt;" style="whiteSpace=wrap;html=1;rounded=1;align=left;" parent="1" vertex="1">
          <mxGeometry x="380" y="160" width="340" height="170" as="geometry" />
        </mxCell>
        <mxCell id="fek8TJw1fnv52tVcd77_-1" style="edgeStyle=orthogonalEdgeStyle;rounded=0;orthogonalLoop=1;jettySize=auto;html=1;" edge="1" parent="1" source="Tk3rU23ebC6zBRoKbNvr-6">
          <mxGeometry relative="1" as="geometry">
            <mxPoint x="890" y="470" as="targetPoint" />
            <Array as="points">
              <mxPoint x="860" y="570" />
              <mxPoint x="860" y="471" />
            </Array>
          </mxGeometry>
        </mxCell>
        <mxCell id="fek8TJw1fnv52tVcd77_-2" value="Main Componentrs" style="edgeLabel;html=1;align=center;verticalAlign=middle;resizable=0;points=[];" vertex="1" connectable="0" parent="fek8TJw1fnv52tVcd77_-1">
          <mxGeometry x="-0.6933" relative="1" as="geometry">
            <mxPoint x="33" as="offset" />
          </mxGeometry>
        </mxCell>
        <mxCell id="Tk3rU23ebC6zBRoKbNvr-6" value="&lt;div&gt;&lt;ol&gt;&lt;li&gt;Employee information management&lt;/li&gt;&lt;li&gt;Recruitment &amp;amp; applicant tracking&lt;/li&gt;&lt;li&gt;Time &amp;amp; attendance management&lt;/li&gt;&lt;li&gt;Payroll management&lt;/li&gt;&lt;li&gt;Performance management&lt;/li&gt;&lt;li&gt;Time off request and approval workflow&lt;/li&gt;&lt;li&gt;Document management&lt;/li&gt;&lt;li&gt;Employee communication&lt;/li&gt;&lt;li&gt;Mobile accessibility&lt;/li&gt;&lt;li&gt;Security and access control&lt;/li&gt;&lt;li&gt;Integration with other systems&lt;/li&gt;&lt;/ol&gt;&lt;/div&gt;" style="whiteSpace=wrap;html=1;rounded=1;align=left;" parent="1" vertex="1">
          <mxGeometry x="350" y="470" width="365" height="200" as="geometry" />
        </mxCell>
      </root>
    </mxGraphModel>
  </diagram>
</mxfile>
